<?xml version="1.0" encoding="utf-8"?>
<!-- Generator: Adobe Illustrator 24.2.1, SVG Export Plug-In . SVG Version: 6.00 Build 0)  -->
<svg version="1.1" id="Camada_1" xmlns="http://www.w3.org/2000/svg" xmlns:xlink="http://www.w3.org/1999/xlink" x="0px" y="0px"
	 viewBox="0 0 254.6 65.4" style="enable-background:new 0 0 254.6 65.4;" xml:space="preserve">
<style type="text/css">
	.st0{fill:#FFFFFF;}
	.st1{fill:#F1592A;}
</style>
<path class="st0" d="M11.7,56c9.6,8.3,30.5,8.8,40.9-5.6c5.6-7.3,7.3-17.3,4.6-26.3c-0.4-1.3-0.9-2.5-1-2.4
	c-6,5-13.6,11.8-13.9,13.1c-1,6.4-8,11.5-14.4,10.4c-10.2-1.7-14.5-13.9-7.7-21.4c3.5-3.8,8.4-5.2,13.1-3.7c1,0.3,1.8,0.7,1.7,0.8
	c-0.1,0.2-5,4.7-7.7,7.1c-0.9,0.7-1.8,1.8-2,2.3c-0.5,1.1-0.5,3.2,0,4.3c0.7,1.9,3.3,3.2,5.3,2.8c1.4-0.3,2.1-0.8,7.2-5.4
	c2.6-2.3,7.3-6.5,10.5-9.4c3.2-2.8,5.7-5.2,5.7-5.3s-0.5-0.9-1.2-1.8C21.3-18.9-20.7,29.7,11.7,56z"/>
<path class="st0" d="M230.8,18.2c-2.4,0.8-4.3,2.8-4.8,5.3c-0.3,1.5-0.3,1.5-1.3,1.5h-0.9v2.2v2.2h1h1v8.3V46h2.5h2.5v-8.3v-8.3h1.2
	h1.2v-2.2V25H232c-1.2,0-1.2-0.1-1.1-0.6c0.2-0.7,1.4-1.9,2-1.9c0.3,0,0.4-0.5,0.4-2.4C233.3,17.5,233.2,17.5,230.8,18.2z"/>
<path class="st0" d="M74.1,18.7C72,19,68.9,20.5,67.2,22c-1.8,1.5-3.3,4-4.1,6.4c-0.7,2.5-0.6,6.7,0.3,9.1c1.3,3.3,4.6,6.7,8,8
	c2,0.8,6.3,1,8.6,0.5c3.8-0.8,7.7-4,9.4-7.5c1.8-3.8,1.8-8.4,0.1-12.1c-0.9-2-3.6-5-5.4-6C81.3,18.8,77.5,18.1,74.1,18.7z
	 M79.8,23.5c1.9,0.6,4.3,3,5.3,5.1c1,2.1,1.1,4.8,0.3,7.1c-0.6,1.8-2.8,4.3-4.7,5.3c-1.2,0.6-1.7,0.7-4,0.7c-2.2,0-2.8-0.1-3.9-0.6
	c-1.9-0.9-3.4-2.3-4.4-4.3c-0.9-1.6-0.9-1.9-0.9-4.4s0.1-2.7,0.9-4.4C70.8,23.7,75.1,22,79.8,23.5z"/>
<path class="st0" d="M177.4,20.9v2.5h2.4h2.4v-2.5v-2.5h-2.4h-2.4V20.9z"/>
<path class="st0" d="M102.1,25.4c-1.3,0.4-1.7,0.6-3,1.8l-0.8,0.7v-1.3v-1.3h-2.4h-2.4v10.4V46h2.3h2.3l0.1-5.8
	c0.1-5.4,0.1-5.8,0.7-7.1c0.7-1.5,2.4-2.8,4.1-3.3c1.1-0.3,1.2-0.3,1.4-2c0.5-2.7,0.4-2.9-0.4-2.9C103.7,25,102.8,25.2,102.1,25.4z"
	/>
<path class="st0" d="M113.3,25.3c-1.8,0.4-3.9,1.6-5.2,2.9c-4.1,4.2-4.1,11.1,0,15.2c2,2,3.7,2.7,6.7,2.8c2.8,0.1,4.1-0.2,5.9-1.5
	c0.5-0.4,1-0.6,1.1-0.6c0.1,0.2-0.7,1.8-1.6,2.9c-1,1.3-2.5,2-4.3,2c-1.8,0-2.9-0.5-4.3-1.8l-1-0.9l-1.7,1.3
	c-0.9,0.7-1.7,1.4-1.7,1.5c-0.1,0.4,2.5,2.8,4,3.5c1.2,0.6,1.7,0.7,4.4,0.7c3.5,0,4.6-0.4,7.2-2.4c3.2-2.5,3.7-4.5,3.7-16.7v-9h-2.4
	h-2.4l0.1,1.3l0.1,1.3l-0.9-0.8c-0.5-0.4-1.4-1-2-1.3C117.8,25.2,114.9,24.9,113.3,25.3z M117.1,29.7c2.7,0.6,4.6,3.1,4.7,6
	c0,3.5-2.5,6.1-6,6.1c-2,0-3-0.5-4.4-2c-2.4-2.7-2.1-6.4,0.8-8.8c0.9-0.8,2.2-1.4,3.3-1.5C115.6,29.4,116.3,29.6,117.1,29.7z"/>
<path class="st0" d="M137.9,25.3c-1.9,0.4-3.5,1.2-5,2.5c-2.6,2.4-3.6,4.8-3.4,8.5c0.1,3,1,5,3,7c2.3,2.3,3.6,2.8,7.1,2.8
	c3.2,0,3.8-0.2,5.7-1.8l1-0.9v1.3V46h2.4h2.4V35.5V25h-2.4h-2.4v1.4v1.4l-1-1c-0.6-0.6-1.4-1.1-1.8-1.3
	C142.5,25.2,139.2,25,137.9,25.3z M142.7,30.1c0.5,0.2,1.3,0.8,1.9,1.4c3.7,3.8,0.9,10.3-4.4,10.3c-3.4,0-5.9-2.6-5.9-6.1
	C134.2,31.3,138.5,28.4,142.7,30.1z"/>
<path class="st0" d="M163.3,25.2c-1.2,0.2-2.3,0.7-3.2,1.4l-0.9,0.7v-1v-1h-2.4h-2.4v10.4V46h2.3h2.3l0.1-6.5l0.1-6.5l0.8-1.2
	c1.1-1.6,2.3-2.2,4-2.2c1.7,0,3.1,0.8,4,2.4c0.7,1.2,0.7,1.3,0.7,7.6V46h2.4h2.4l-0.1-7.4l-0.1-7.4l-0.7-1.4c-0.9-1.6-2.6-3.3-4.2-4
	C167.3,25.3,164.5,24.9,163.3,25.2z"/>
<path class="st0" d="M177.4,35.5V46h2.4h2.4V35.5V25h-2.4h-2.4V35.5z"/>
<path class="st0" d="M184.6,27.1v2l4.2,0.1l4.2,0.1l-4.4,8.2c-2.4,4.5-4.4,8.2-4.4,8.4c0,0.1,3.6,0.2,8,0.2h8v-2.1v-2l-4.3-0.1
	l-4.3-0.1l4.4-8.2c2.4-4.5,4.4-8.2,4.4-8.4c0-0.1-3.6-0.2-8-0.2h-8V27.1z"/>
<path class="st0" d="M210.2,25.3c-2.1,0.4-4.1,1.5-5.7,3.2c-2.4,2.5-3.3,5.6-2.8,9.2c0.6,3.5,2.6,6.2,5.8,7.8c1.3,0.6,2,0.8,4.3,0.9
	c2.3,0.1,3,0,4.3-0.5c1.7-0.7,4.1-2.4,4.1-2.9c0-0.2-0.7-0.9-1.6-1.6c-1.5-1.2-1.6-1.2-2.2-0.8c-1.8,1.4-4.6,1.9-6.3,1.2
	c-1.1-0.4-2.7-1.9-3.3-3.2c-1.3-2.5-0.4-6,1.8-7.6c2.2-1.6,5-1.6,7.2-0.2c1,0.7,2.2,2.2,2.2,2.7c0,0.1-2.2,0.2-5,0.2h-5v1.9v1.9h7.5
	h7.5v-1.9c0-3.4-1.4-6.2-4.3-8.4C216.5,25.5,213.2,24.8,210.2,25.3z"/>
<path class="st0" d="M237.2,29.5c1.3,2.5,2.9,5.7,3.7,7.1l1.3,2.6l-3.6,7.1l-3.6,7.1h2.6h2.6l3.3-6.4c1.8-3.5,5.1-9.9,7.2-14.1
	l3.9-7.7h-2.7h-2.7l-2.1,4.4c-1.2,2.4-2.2,4.4-2.3,4.4c-0.1,0-1.1-2-2.4-4.4l-2.2-4.4h-2.7h-2.7L237.2,29.5z"/>
<path class="st1" d="M42.4,33.7c-0.4,6.2-6,11.4-13,11.4c-6.6,0-12.2-5.8-12.2-12.4c0-7.7,5.5-13.1,12.2-13.1c2.2,0,4.1,0.4,5.7,1.2
	l5.6-4.7c-3-2.1-6.9-3.4-11.5-3.4c-10.4,0-18.8,8.2-18.8,20.1c0,10.1,8.6,19,18.8,19c11.1,0,20-8.6,20-18.7c0-1.7-0.2-3.3-0.6-5
	L42.4,33.7z"/>
<g>
	<path class="st0" d="M146.5,49.4c0.4-0.1,1-0.1,1.8-0.1c0.9,0,1.5,0.2,1.9,0.5c0.4,0.3,0.6,0.8,0.6,1.5c0,0.6-0.2,1.1-0.6,1.5
		c-0.5,0.5-1.2,0.7-2.1,0.7c-0.2,0-0.4,0-0.6,0v2.5h-1.2V49.4z M147.7,52.4c0.1,0,0.3,0,0.6,0c0.9,0,1.4-0.4,1.4-1.2
		c0-0.7-0.5-1.1-1.3-1.1c-0.3,0-0.6,0-0.7,0.1V52.4z"/>
	<path class="st0" d="M156.5,53.4c0,1.7-1.2,2.5-2.4,2.5c-1.3,0-2.4-0.9-2.4-2.5c0-1.6,1-2.5,2.5-2.5C155.5,51,156.5,52,156.5,53.4z
		 M152.9,53.5c0,0.9,0.4,1.6,1.2,1.6c0.7,0,1.2-0.7,1.2-1.6c0-0.7-0.3-1.6-1.2-1.6C153.2,51.9,152.9,52.7,152.9,53.5z"/>
	<path class="st0" d="M158.3,51.1l0.5,2.2c0.1,0.5,0.2,1,0.3,1.5h0c0.1-0.5,0.3-1,0.4-1.5l0.6-2.2h1l0.6,2.1
		c0.1,0.6,0.3,1.1,0.4,1.6h0c0.1-0.5,0.2-1,0.3-1.6l0.5-2.1h1.2l-1.5,4.8h-1.1l-0.6-1.9c-0.1-0.5-0.3-0.9-0.4-1.5h0
		c-0.1,0.6-0.2,1.1-0.4,1.5l-0.6,1.9h-1.1l-1.4-4.8H158.3z"/>
	<path class="st0" d="M165.9,53.8c0,0.9,0.7,1.2,1.5,1.2c0.6,0,1-0.1,1.3-0.2l0.2,0.8c-0.4,0.2-1,0.3-1.7,0.3
		c-1.5,0-2.5-0.9-2.5-2.4c0-1.3,0.8-2.6,2.3-2.6c1.5,0,2.1,1.3,2.1,2.3c0,0.2,0,0.4,0,0.5H165.9z M168,53c0-0.4-0.2-1.2-1-1.2
		c-0.7,0-1.1,0.7-1.1,1.2H168z"/>
	<path class="st0" d="M170.3,52.6c0-0.6,0-1.1,0-1.5h1l0,0.9h0c0.2-0.7,0.8-1,1.3-1c0.1,0,0.2,0,0.3,0v1.1c-0.1,0-0.2,0-0.4,0
		c-0.6,0-1,0.4-1.1,0.9c0,0.1,0,0.2,0,0.4v2.5h-1.2V52.6z"/>
	<path class="st0" d="M174.5,55.9V52h-0.6v-0.9h0.6v-0.2c0-0.6,0.2-1.2,0.6-1.6c0.4-0.3,0.8-0.5,1.2-0.5c0.3,0,0.6,0,0.8,0.1
		l-0.1,0.9c-0.1,0-0.3-0.1-0.5-0.1c-0.6,0-0.8,0.5-0.8,1.1v0.2h1V52h-1v3.9H174.5z"/>
	<path class="st0" d="M182,54.4c0,0.6,0,1,0,1.4h-1.1l-0.1-0.7h0c-0.2,0.3-0.7,0.8-1.5,0.8c-0.9,0-1.7-0.5-1.7-2.1v-2.8h1.2v2.6
		c0,0.8,0.3,1.3,0.9,1.3c0.5,0,0.8-0.3,0.9-0.6c0-0.1,0.1-0.2,0.1-0.4v-2.9h1.2V54.4z"/>
	<path class="st0" d="M183.5,48.9h1.2v6.9h-1.2V48.9z"/>
	<path class="st0" d="M188.5,54.5c0.4,0.2,1,0.4,1.6,0.4c0.8,0,1.2-0.4,1.2-0.9c0-0.5-0.3-0.8-1.2-1.1c-1.1-0.4-1.8-1-1.8-1.9
		c0-1.1,0.9-1.9,2.3-1.9c0.7,0,1.2,0.2,1.6,0.3l-0.3,1c-0.2-0.1-0.7-0.3-1.3-0.3c-0.8,0-1.1,0.4-1.1,0.8c0,0.5,0.4,0.7,1.3,1.1
		c1.1,0.4,1.7,1,1.7,2c0,1.1-0.8,2-2.5,2c-0.7,0-1.4-0.2-1.8-0.4L188.5,54.5z"/>
	<path class="st0" d="M193.8,52.5c0-0.5,0-1,0-1.4h1l0,0.7h0c0.2-0.4,0.7-0.8,1.5-0.8c0.6,0,1.1,0.4,1.3,0.9h0
		c0.2-0.3,0.4-0.5,0.6-0.6c0.3-0.2,0.6-0.3,1-0.3c0.8,0,1.6,0.5,1.6,2.1v2.8h-1.2v-2.6c0-0.8-0.3-1.3-0.9-1.3
		c-0.4,0-0.7,0.3-0.8,0.6c0,0.1-0.1,0.3-0.1,0.4v2.9h-1.2v-2.8c0-0.7-0.3-1.1-0.8-1.1c-0.4,0-0.8,0.4-0.9,0.7c0,0.1-0.1,0.3-0.1,0.4
		v2.8h-1.2V52.5z"/>
	<path class="st0" d="M205,55.9l-0.1-0.5h0c-0.3,0.4-0.8,0.6-1.4,0.6c-1,0-1.5-0.7-1.5-1.4c0-1.2,1.1-1.8,2.8-1.8v-0.1
		c0-0.3-0.1-0.8-1-0.8c-0.5,0-1,0.1-1.3,0.4l-0.2-0.8c0.4-0.2,1-0.4,1.7-0.4c1.5,0,2,1,2,2v1.7c0,0.4,0,0.9,0.1,1.1H205z
		 M204.9,53.5c-0.9,0-1.7,0.2-1.7,0.9c0,0.5,0.3,0.7,0.7,0.7c0.5,0,0.8-0.3,0.9-0.7c0-0.1,0-0.2,0-0.3V53.5z"/>
	<path class="st0" d="M207.6,52.6c0-0.6,0-1.1,0-1.5h1l0,0.9h0c0.2-0.7,0.8-1,1.3-1c0.1,0,0.2,0,0.3,0v1.1c-0.1,0-0.2,0-0.4,0
		c-0.6,0-1,0.4-1.1,0.9c0,0.1,0,0.2,0,0.4v2.5h-1.2V52.6z"/>
	<path class="st0" d="M212.9,49.7v1.4h1.1V52h-1.1v2.1c0,0.6,0.2,0.9,0.6,0.9c0.2,0,0.4,0,0.5-0.1l0,0.9c-0.2,0.1-0.5,0.1-0.9,0.1
		c-0.4,0-0.8-0.1-1-0.4c-0.3-0.3-0.4-0.7-0.4-1.3V52H211v-0.9h0.7V50L212.9,49.7z"/>
	<path class="st0" d="M216,53.8c0,0.9,0.7,1.2,1.5,1.2c0.6,0,1-0.1,1.3-0.2l0.2,0.8c-0.4,0.2-1,0.3-1.7,0.3c-1.5,0-2.5-0.9-2.5-2.4
		c0-1.3,0.8-2.6,2.3-2.6c1.5,0,2.1,1.3,2.1,2.3c0,0.2,0,0.4,0,0.5H216z M218.1,53c0-0.4-0.2-1.2-1-1.2c-0.7,0-1.1,0.7-1.1,1.2H218.1
		z"/>
	<path class="st0" d="M220.4,52.6c0-0.6,0-1.1,0-1.5h1l0,0.9h0c0.2-0.7,0.8-1,1.3-1c0.1,0,0.2,0,0.3,0v1.1c-0.1,0-0.2,0-0.4,0
		c-0.6,0-1,0.4-1.1,0.9c0,0.1,0,0.2,0,0.4v2.5h-1.2V52.6z"/>
</g>
</svg>
